<svg xmlns="http://www.w3.org/2000/svg" xmlns:xlink="http://www.w3.org/1999/xlink" width="153" height="35" viewBox="0 0 153 35">
  <defs>
    <clipPath id="clip-path">
      <rect id="Rectangle_85" data-name="Rectangle 85" width="21" height="35" transform="translate(-0.233 0.079)" fill="#6d6d6d"/>
    </clipPath>
  </defs>
  <g id="Group_41" data-name="Group 41" transform="translate(0.212 -0.079)">
    <path id="Polygon_1" data-name="Polygon 1" d="M13.048,2.972a1,1,0,0,1,1.9,0l2.13,6.647a1,1,0,0,0,.952.695h6.922a1,1,0,0,1,.593,1.805l-5.624,4.143a1,1,0,0,0-.359,1.11l2.142,6.685a1,1,0,0,1-1.545,1.11l-5.571-4.1a1,1,0,0,0-1.186,0l-5.571,4.1a1,1,0,0,1-1.545-1.11l2.142-6.685a1,1,0,0,0-.359-1.11L2.45,12.118a1,1,0,0,1,.593-1.805H9.965a1,1,0,0,0,.952-.695Z" transform="translate(-0.212 4.079)" fill="#fff"/>
    <path id="Polygon_1-2" data-name="Polygon 1" d="M13.048,2.972a1,1,0,0,1,1.9,0l2.13,6.647a1,1,0,0,0,.952.695h6.922a1,1,0,0,1,.593,1.805l-5.624,4.143a1,1,0,0,0-.359,1.11l2.142,6.685a1,1,0,0,1-1.545,1.11l-5.571-4.1a1,1,0,0,0-1.186,0l-5.571,4.1a1,1,0,0,1-1.545-1.11l2.142-6.685a1,1,0,0,0-.359-1.11L2.45,12.118a1,1,0,0,1,.593-1.805H9.965a1,1,0,0,0,.952-.695Z" transform="translate(29.788 4.079)" fill="#fff"/>
    <path id="Polygon_1-3" data-name="Polygon 1" d="M13.048,2.972a1,1,0,0,1,1.9,0l2.13,6.647a1,1,0,0,0,.952.695h6.922a1,1,0,0,1,.593,1.805l-5.624,4.143a1,1,0,0,0-.359,1.11l2.142,6.685a1,1,0,0,1-1.545,1.11l-5.571-4.1a1,1,0,0,0-1.186,0l-5.571,4.1a1,1,0,0,1-1.545-1.11l2.142-6.685a1,1,0,0,0-.359-1.11L2.45,12.118a1,1,0,0,1,.593-1.805H9.965a1,1,0,0,0,.952-.695Z" transform="translate(58.788 4.079)" fill="#fff"/>
    <path id="Polygon_1-4" data-name="Polygon 1" d="M13.048,2.972a1,1,0,0,1,1.9,0l2.13,6.647a1,1,0,0,0,.952.695h6.922a1,1,0,0,1,.593,1.805l-5.624,4.143a1,1,0,0,0-.359,1.11l2.142,6.685a1,1,0,0,1-1.545,1.11l-5.571-4.1a1,1,0,0,0-1.186,0l-5.571,4.1a1,1,0,0,1-1.545-1.11l2.142-6.685a1,1,0,0,0-.359-1.11L2.45,12.118a1,1,0,0,1,.593-1.805H9.965a1,1,0,0,0,.952-.695Z" transform="translate(88.788 4.079)" fill="#fff"/>
    <path id="Polygon_1-5" data-name="Polygon 1" d="M13.048,2.972a1,1,0,0,1,1.9,0l2.13,6.647a1,1,0,0,0,.952.695h6.922a1,1,0,0,1,.593,1.805l-5.624,4.143a1,1,0,0,0-.359,1.11l2.142,6.685a1,1,0,0,1-1.545,1.11l-5.571-4.1a1,1,0,0,0-1.186,0l-5.571,4.1a1,1,0,0,1-1.545-1.11l2.142-6.685a1,1,0,0,0-.359-1.11L2.45,12.118a1,1,0,0,1,.593-1.805H9.965a1,1,0,0,0,.952-.695Z" transform="translate(117.788 4.079)" fill="#fff"/>
    <g id="Mask_Group_1" data-name="Mask Group 1" transform="translate(132.021)" clip-path="url(#clip-path)">
      <path id="Polygon_2" data-name="Polygon 2" d="M13.048,2.972a1,1,0,0,1,1.9,0l2.13,6.647a1,1,0,0,0,.952.695h6.922a1,1,0,0,1,.593,1.805l-5.624,4.143a1,1,0,0,0-.359,1.11l2.142,6.685a1,1,0,0,1-1.545,1.11l-5.571-4.1a1,1,0,0,0-1.186,0l-5.571,4.1a1,1,0,0,1-1.545-1.11l2.142-6.685a1,1,0,0,0-.359-1.11L2.45,12.118a1,1,0,0,1,.593-1.805H9.965a1,1,0,0,0,.952-.695Z" transform="translate(-14.233 4.079)" fill="#6d6d6d"/>
    </g>
  </g>
</svg>
